<svg xmlns="http://www.w3.org/2000/svg" viewBox="0 0 460.3 460.3"><defs><style>.a{fill:#333;}.b{fill:#fff;}</style></defs><title>ico-question</title><circle class="a" cx="230.1" cy="230.1" r="164.3"/><circle class="b" cx="232.5" cy="331" r="36.5"/><path class="b" d="M314.4,146.2a80.6,80.6,0,0,0-20.6-24.8,105.4,105.4,0,0,0-28.4-16.1,87.2,87.2,0,0,0-31.3-6q-59.1,0-90.2,51.7a7.7,7.7,0,0,0-1.1,5.4,7.6,7.6,0,0,0,3,4.9l31.9,24.3a9.3,9.3,0,0,0,4.9,1.6,7.6,7.6,0,0,0,6-3.1q14-17.5,20.8-22.4,8.4-5.6,21-5.6a36,36,0,0,1,20.9,6.2q9,6.2,9,14.4t-4.9,14.8q-4.9,5.6-16.3,10.9-15.2,6.8-27.8,21.1t-12.6,30.4v8.8a14.6,14.6,0,0,0,2,7.3q2,3.6,5,3.6h46.7a6.8,6.8,0,0,0,5.4-3,10.2,10.2,0,0,0,2.3-6.3q0-4.9,5.3-13a38.1,38.1,0,0,1,13.3-12.6l11.9-6.9a98.5,98.5,0,0,0,11.2-8.5,55.9,55.9,0,0,0,10.7-11.6,65.7,65.7,0,0,0,9.8-34.5A63.7,63.7,0,0,0,314.4,146.2Z"/></svg>