<svg xmlns="http://www.w3.org/2000/svg" viewBox="0 0 460.3 460.3"><defs><style>.a{fill:#333;}.b{fill:#fff;}</style></defs><title>ico-tax</title><path class="a" d="M229.9,132.3,82.7,253.6a2.8,2.8,0,0,1-.1.8,2.5,2.5,0,0,0-.1.8V377.9a15.5,15.5,0,0,0,4.9,11.5,15.9,15.9,0,0,0,11.5,4.9H361a15.5,15.5,0,0,0,11.5-4.9,15.9,15.9,0,0,0,4.9-11.5V255.1a2.8,2.8,0,0,0-.3-1.5Z"/><path class="a" d="M433.3,225.8l-56-46.6V74.9A8.2,8.2,0,0,0,375,69a8.1,8.1,0,0,0-5.9-2.3H320a7.9,7.9,0,0,0-8.2,8.2v49.9L249.4,72.6A30.1,30.1,0,0,0,230,65.9a29.3,29.3,0,0,0-19.4,6.7L26.6,225.9a7.6,7.6,0,0,0-2.8,5.5,8,8,0,0,0,1.8,6l15.9,18.9a8.9,8.9,0,0,0,5.4,2.8,9.1,9.1,0,0,0,6.1-1.8L230.1,109.7,407.2,257.3a8,8,0,0,0,5.4,1.8h.8a8.9,8.9,0,0,0,5.4-2.8l15.9-18.9a8,8,0,0,0,1.8-6A9.8,9.8,0,0,0,433.3,225.8Z"/><path class="b" d="M187.9,351.5a12,12,0,0,1-8.5,3.5,12.2,12.2,0,0,1-8.5-3.5,11.8,11.8,0,0,1,0-16.9L272.4,233.1A11.9,11.9,0,0,1,289.3,250Z"/><path class="b" d="M146.4,244.4a35.9,35.9,0,1,1,35.9,35.9A36,36,0,0,1,146.4,244.4ZM278,376a35.9,35.9,0,1,1,35.9-35.9A36,36,0,0,1,278,376Z"/><path class="a" d="M278,328.1a12,12,0,1,0,12,12A12,12,0,0,0,278,328.1Z"/><path class="a" d="M182.3,232.4a12,12,0,1,0,12,12A12,12,0,0,0,182.3,232.4Z"/></svg>